<?xml version="1.0" encoding="UTF-8" standalone="no"?>
<svg
   xmlns:dc="http://purl.org/dc/elements/1.1/"
   xmlns:cc="http://creativecommons.org/ns#"
   xmlns:rdf="http://www.w3.org/1999/02/22-rdf-syntax-ns#"
   xmlns:svg="http://www.w3.org/2000/svg"
   xmlns="http://www.w3.org/2000/svg"
   xmlns:sodipodi="http://sodipodi.sourceforge.net/DTD/sodipodi-0.dtd"
   xmlns:inkscape="http://www.inkscape.org/namespaces/inkscape"
   inkscape:version="1.0 (4035a4fb49, 2020-05-01)"
   sodipodi:docname="fullctx-full-filled-black.svg"
   xml:space="preserve"
   style="enable-background:new 0 0 473.654 473.654;"
   viewBox="0 0 473.654 473.654"
   y="0px"
   x="0px"
   id="Layer_1"
   version="1.1"><metadata
   id="metadata47"><rdf:RDF><cc:Work
       rdf:about=""><dc:format>image/svg+xml</dc:format><dc:type
         rdf:resource="http://purl.org/dc/dcmitype/StillImage" /><dc:title></dc:title></cc:Work></rdf:RDF></metadata><defs
   id="defs45" /><sodipodi:namedview
   inkscape:current-layer="Layer_1"
   inkscape:window-maximized="1"
   inkscape:window-y="-8"
   inkscape:window-x="-8"
   inkscape:cy="128.72223"
   inkscape:cx="174.41376"
   inkscape:zoom="1"
   showgrid="false"
   id="namedview43"
   inkscape:window-height="1057"
   inkscape:window-width="1858"
   inkscape:pageshadow="2"
   inkscape:pageopacity="0"
   guidetolerance="10"
   gridtolerance="10"
   objecttolerance="10"
   borderopacity="1"
   bordercolor="#666666"
   pagecolor="#ffffff"
   inkscape:document-rotation="0"
   inkscape:pagecheckerboard="true" />

<g
   style="fill:#000000"
   id="g10"
   transform="matrix(1.5171699,0,0,1.5171699,-121.96896,-122.94094)">
	<path
   id="path4"
   d="m 207.76,318.93 c -13.773,0 -27.542,0 -41.315,0 16.136,-16.133 32.273,-32.269 48.409,-48.401 10.224,-10.224 -5.699,-26.035 -15.953,-15.785 -16.11,16.11 -32.22,32.216 -48.33,48.326 0,-13.72 0,-27.441 0.004,-41.165 0,-14.487 -22.441,-14.614 -22.441,-0.161 -0.004,22.774 -0.004,45.552 -0.007,68.326 0,6.081 4.996,11.301 11.14,11.301 22.778,0 45.555,0 68.333,0 14.486,0.003 14.613,-22.441 0.16,-22.441 z"
   style="fill:#ffffff" />
	<path
   id="path6"
   d="m 336.326,122.041 c -22.778,0 -45.555,-0.004 -68.333,-0.007 -14.491,0 -14.618,22.441 -0.161,22.445 13.773,0 27.542,0.004 41.315,0.004 -16.136,16.133 -32.273,32.273 -48.405,48.405 -10.224,10.224 5.703,26.035 15.953,15.785 16.11,-16.114 32.22,-32.22 48.33,-48.334 0,13.724 0,27.445 -0.004,41.165 0,14.487 22.441,14.614 22.441,0.161 0.004,-22.774 0.004,-45.548 0.007,-68.322 0.001,-6.082 -4.999,-11.298 -11.143,-11.302 z"
   style="fill:#ffffff" />
	<path
   id="path8"
   d="m 392.592,113.672 c 0,-1.283 -0.228,-2.412 -0.546,-3.47 -4.039,-21.981 -20.814,-29.169 -41.906,-29.169 -22.516,0 -45.036,0 -67.555,0 -52.975,0 -105.95,0 -158.921,0 -22.101,0 -39.774,7.752 -42.62,32.478 -1.466,12.703 0,26.443 0,39.209 0,56.935 0,113.87 0,170.809 0,13.661 -1.006,27.721 0.561,41.319 2.696,23.384 24.401,27.74 43.544,27.74 53.584,0 107.169,0 160.749,0 21.873,0 43.742,0 65.611,0 20.182,0 41.079,-8.627 41.079,-32.542 0,-42.919 0,-85.834 0,-128.75 0,-38.308 0,-76.62 0,-114.928 0.097,-0.838 0.116,-1.728 0.004,-2.696 z m -32.467,256.471 c -12.703,1.466 -26.446,0 -39.209,0 -28.626,0 -57.253,0 -85.879,0 -28.309,0 -56.621,0 -84.929,0 -8.683,0 -44.763,6.099 -46.621,-10.026 -1.462,-12.703 0,-26.443 0,-39.209 0,-28.623 0,-57.253 0,-85.879 0,-28.309 0,-56.621 0,-84.929 0,-8.691 -6.099,-44.763 10.033,-46.621 12.703,-1.466 26.446,0 39.209,0 28.626,0 57.253,0 85.879,0 28.309,0 56.621,0 84.929,0 8.695,0 44.755,-6.103 46.614,10.033 0,41.696 0,83.392 0,125.089 0,28.309 0,56.621 0,84.929 -0.001,8.686 6.095,44.758 -10.026,46.613 z"
   style="fill:#ffffff" />
</g>
<g
   id="g12">
</g>
<g
   id="g14">
</g>
<g
   id="g16">
</g>
<g
   id="g18">
</g>
<g
   id="g20">
</g>
<g
   id="g22">
</g>
<g
   id="g24">
</g>
<g
   id="g26">
</g>
<g
   id="g28">
</g>
<g
   id="g30">
</g>
<g
   id="g32">
</g>
<g
   id="g34">
</g>
<g
   id="g36">
</g>
<g
   id="g38">
</g>
<g
   id="g40">
</g>
<path
   id="path2802"
   d="m 55.913761,438.65922 c -8.133546,-1.43729 -15.481839,-5.36252 -18.164287,-9.70281 l -2.267791,-3.66937 -0.268104,-168.5324 C 35.066123,164.06181 34.827625,81.022227 34.683585,72.222227 34.451903,58.067838 34.67574,55.413443 36.624076,49.210702 c 2.206276,-7.023918 6.159289,-12.151533 10.789685,-13.995738 1.1,-0.438111 72.531109,-0.684199 158.735789,-0.546863 117.8151,0.187695 162.03151,-0.06706 178.06195,-1.025934 16.88778,-1.010152 23.18633,-1.022543 30.26421,-0.05954 10.18731,1.386068 18.71222,5.070595 21.89337,9.462475 2.03309,2.806877 2.04918,3.792984 2.83792,173.999998 0.43628,94.14742 0.87706,177.25213 0.97952,184.67713 0.24252,17.5761 -1.6398,25.26063 -7.74949,31.63705 -2.92677,3.05455 -5.05653,4.40167 -7.10185,4.49206 -1.60678,0.071 -75.82142,0.18749 -164.92142,0.25886 -89.1,0.0714 -170.324999,0.44277 -180.499999,0.82534 -10.936128,0.41119 -20.748719,0.29821 -24,-0.27632 z M 201.91376,393.19935 c 10.40922,-6.01617 10.47851,-24.46771 0.11376,-30.29303 -3.77933,-2.1241 -4.80202,-2.18409 -37.23244,-2.18409 H 131.4487 l 38.14657,-38.25 c 41.64418,-41.75708 41.51524,-41.59191 39.19481,-50.2093 -2.77885,-10.31987 -12.23227,-16.11539 -22.04264,-13.51347 -3.82624,1.0148 -8.74939,5.55126 -42.04471,38.74227 l -37.71103,37.59289 -0.28897,-33.60955 c -0.27639,-32.14703 -0.37869,-33.72964 -2.35076,-36.3694 -3.88583,-5.20148 -7.040703,-6.79644 -14.220176,-7.18907 -5.761255,-0.31507 -7.203405,-0.0346 -10.126085,1.96912 -1.874429,1.28508 -4.349429,3.60667 -5.5,5.15909 -2.054734,2.77236 -2.097336,3.81303 -2.394832,58.5 -0.200744,36.90153 0.05203,56.89636 0.749575,59.29202 1.474774,5.06501 4.708564,8.82151 9.47471,11.00619 3.850761,1.76508 7.206866,1.85583 60.078598,1.62436 54.15481,-0.23707 56.11532,-0.3118 59.5,-2.26803 z M 396.95187,197.47223 c 3.25955,-1.64369 5.0682,-3.45234 6.71189,-6.71189 l 2.25,-4.46189 -0.022,-55.03811 c -0.0247,-61.916042 0.16195,-60.278603 -7.54135,-66.154201 l -3.78097,-2.883912 h -58.25451 c -57.27685,0 -58.30085,0.0346 -61.01605,2.061789 -5.20237,3.884131 -6.79807,7.039719 -7.19075,14.220178 -0.31507,5.761255 -0.0346,7.203405 1.96912,10.126085 1.28508,1.874429 3.60625,4.349429 5.15816,5.5 2.71161,2.010368 4.13232,2.103217 36.43119,2.380916 l 33.60955,0.288967 -37.55843,37.711038 c -40.00491,40.16744 -40.76611,41.11617 -39.33578,49.02621 0.9637,5.32951 4.93817,10.84131 9.4931,13.16507 4.35787,2.22322 11.88143,2.67157 15.35446,0.91502 1.20134,-0.6076 19.17176,-18.04288 39.93426,-38.74507 l 37.75,-37.64033 v 33.29472 c 0,35.60566 0.0666,36.13405 5.1555,40.88534 5.18158,4.83785 13.70639,5.67883 20.88261,2.06007 z"
   style="fill:#000000;fill-opacity:1;fill-rule:nonzero;stroke:#000101" /></svg>
