<?xml version="1.0" encoding="UTF-8" standalone="no"?>
<svg
   inkscape:export-ydpi="96"
   inkscape:export-xdpi="96"
   inkscape:export-filename="C:\Users\joco-\Pictures\FullCtxDev\roadmap\bo-currency.png"
   id="Capa_1"
   enable-background="new 0 0 512 512"
   height="512"
   viewBox="0 0 512 512"
   width="512"
   version="1.1"
   sodipodi:docname="bo-currency.svg"
   inkscape:version="1.2 (dc2aedaf03, 2022-05-15)"
   xmlns:inkscape="http://www.inkscape.org/namespaces/inkscape"
   xmlns:sodipodi="http://sodipodi.sourceforge.net/DTD/sodipodi-0.dtd"
   xmlns="http://www.w3.org/2000/svg"
   xmlns:svg="http://www.w3.org/2000/svg"
   xmlns:rdf="http://www.w3.org/1999/02/22-rdf-syntax-ns#"
   xmlns:cc="http://creativecommons.org/ns#"
   xmlns:dc="http://purl.org/dc/elements/1.1/">
  <metadata
     id="metadata17">
    <rdf:RDF>
      <cc:Work
         rdf:about="">
        <dc:format>image/svg+xml</dc:format>
        <dc:type
           rdf:resource="http://purl.org/dc/dcmitype/StillImage" />
        <dc:title />
      </cc:Work>
    </rdf:RDF>
  </metadata>
  <defs
     id="defs15">
    <rect
       x="128.54407"
       y="162.71401"
       width="261.15599"
       height="205.83322"
       id="rect844" />
  </defs>
  <sodipodi:namedview
     inkscape:document-rotation="0"
     pagecolor="#ffffff"
     bordercolor="#666666"
     borderopacity="1"
     objecttolerance="10"
     gridtolerance="10"
     guidetolerance="10"
     inkscape:pageopacity="0"
     inkscape:pageshadow="2"
     inkscape:window-width="1858"
     inkscape:window-height="1057"
     id="namedview13"
     showgrid="false"
     inkscape:zoom="1.7382813"
     inkscape:cx="184.66516"
     inkscape:cy="284.18875"
     inkscape:window-x="-8"
     inkscape:window-y="587"
     inkscape:window-maximized="1"
     inkscape:current-layer="g10"
     inkscape:showpageshadow="2"
     inkscape:pagecheckerboard="0"
     inkscape:deskcolor="#d1d1d1" />
  <g
     id="g10"
     transform="translate(7.3221304,-0.81357005)">
    <path
       d="m 249.49144,1.62714 c -141.582,0 -256.0000002,114.384 -256.0000002,256 0,141.582 114.3840002,256 256.0000002,256 141.582,0 256,-114.384 256,-256 0,-141.582 -114.384,-256 -256,-256 z m 0,492 c -130.131,0 -236,-105.869 -236,-236 0,-130.131 105.869,-236 236,-236 130.131,0 236,105.869 236,236 0,130.131 -105.869,236 -236,236 z"
       id="path4"
       style="fill:#16d0d0;fill-opacity:1" />
    <circle
       cx="380.49146"
       cy="388.62714"
       r="10"
       id="circle6"
       style="fill:#16d0d0;fill-opacity:1" />
    <path
       d="m 249.49144,61.62714 c -108.075,0 -196,87.925 -196,196 0,108.075 87.925,196 196,196 35.719,0 70.707,-9.747 101.18,-28.186 4.725,-2.859 6.238,-9.007 3.379,-13.732 -2.859,-4.726 -9.008,-6.238 -13.732,-3.379 -27.351,16.549 -58.758,25.297 -90.827,25.297 -97.047,0 -176,-78.953 -176,-176 0,-97.047 78.953,-176 176,-176 97.047,0 176,78.953 176,176 0,32.069 -8.748,63.476 -25.297,90.827 -2.859,4.725 -1.346,10.873 3.379,13.732 4.724,2.858 10.873,1.347 13.732,-3.379 18.439,-30.473 28.186,-65.461 28.186,-101.18 0,-108.075 -87.925,-196 -196,-196 z"
       id="path8"
       style="fill:#16d0d0;fill-opacity:1" />
    <g
       aria-label="BO"
       transform="matrix(3.1469347,0,0,3.1469347,-295.94694,-384.7301)"
       id="text842"
       style="font-size:72px;line-height:1.25;font-family:Cambria;-inkscape-font-specification:'Cambria, Normal';white-space:pre;shape-inside:url(#rect844);fill:#16d0d0">
      <path
         d="m 132.79883,227.71875 v -1.72266 q 2.17969,-0.5625 2.91797,-1.23047 0.73828,-0.70312 0.94922,-1.96875 0.24609,-1.26562 0.24609,-3.86718 v -30.41016 q 0,-2.42578 -0.17578,-3.51562 -0.17578,-1.125 -0.59766,-1.72266 -0.38672,-0.63281 -1.05469,-0.98438 -0.66796,-0.38671 -2.28515,-0.84375 v -1.72265 h 19.23047 q 5.58984,0 8.96484,1.19531 3.41016,1.19531 5.0625,3.55078 1.65234,2.32031 1.65234,6.01172 0,3.05859 -1.19531,5.30859 -1.16015,2.25 -3.05859,3.72657 -1.89844,1.47656 -4.88672,2.74218 v 0.31641 q 4.78125,1.44141 7.24219,4.46484 2.46093,2.98829 2.46093,7.13672 0,4.78125 -2.14453,7.80469 -2.10937,3.02344 -5.9414,4.39453 -3.83203,1.33594 -9.28125,1.33594 z m 16.83984,-26.47266 q 5.34375,0 8.15625,-2.5664 2.84766,-2.60157 2.84766,-7.52344 0,-2.42578 -0.8086,-4.00781 -0.77343,-1.61719 -2.17968,-2.56641 -1.3711,-0.94922 -3.26953,-1.33594 -1.89844,-0.42187 -4.11329,-0.42187 -1.33593,0 -3.51562,0.0703 -2.17969,0.0703 -3.26953,0.14063 v 18.21093 z m -6.15234,23.13282 q 2.5664,0.24609 5.73047,0.24609 4.60547,0 7.13672,-1.16016 2.5664,-1.16015 3.6914,-3.41015 1.16016,-2.28516 1.16016,-5.69532 0,-3.41015 -1.26563,-5.625 -1.23047,-2.21484 -3.83203,-3.30468 -2.60156,-1.08985 -7.17187,-1.08985 h -5.44922 z"
         id="path3730" />
      <path
         d="m 195.55273,228.28125 q -4.21875,0 -7.69921,-1.37109 -3.44532,-1.40625 -5.94141,-4.32422 -2.46094,-2.95313 -3.83203,-7.52344 -1.33594,-4.57031 -1.33594,-10.93359 0,-7.83985 2.39063,-13.46485 2.39062,-5.625 6.82031,-8.54297 4.46484,-2.95312 10.33594,-2.95312 6.25781,0 10.51171,2.77734 4.28907,2.74219 6.4336,8.1211 2.17969,5.34375 2.17969,13.04296 0,8.22657 -2.46094,13.88672 -2.46094,5.66016 -6.96094,8.47266 -4.46484,2.8125 -10.44141,2.8125 z m -11.5664,-25.13672 q 0,10.79297 3.1289,16.41797 3.16407,5.625 9.21094,5.625 3.83203,0 6.50391,-2.42578 2.67187,-2.46094 4.00781,-7.17188 1.33594,-4.71093 1.33594,-11.0039 0,-7.66407 -1.58203,-12.69141 -1.54688,-5.0625 -4.25391,-7.34766 -2.70703,-2.28515 -6.29297,-2.28515 -3.16406,0 -5.44922,1.47656 -2.25,1.47656 -3.76172,4.21875 -1.47656,2.70703 -2.17968,6.57422 -0.66797,3.86719 -0.66797,8.61328 z"
         id="path3732" />
    </g>
  </g>
</svg>
