<?xml version="1.0" encoding="UTF-8" standalone="no"?>
<svg
   id="Capa_1"
   enable-background="new 0 0 512 512"
   height="512"
   viewBox="0 0 512 512"
   width="512"
   version="1.1"
   sodipodi:docname="co-currency.svg"
   inkscape:version="1.2 (dc2aedaf03, 2022-05-15)"
   xmlns:inkscape="http://www.inkscape.org/namespaces/inkscape"
   xmlns:sodipodi="http://sodipodi.sourceforge.net/DTD/sodipodi-0.dtd"
   xmlns="http://www.w3.org/2000/svg"
   xmlns:svg="http://www.w3.org/2000/svg"
   xmlns:rdf="http://www.w3.org/1999/02/22-rdf-syntax-ns#"
   xmlns:cc="http://creativecommons.org/ns#"
   xmlns:dc="http://purl.org/dc/elements/1.1/">
  <metadata
     id="metadata17">
    <rdf:RDF>
      <cc:Work
         rdf:about="">
        <dc:format>image/svg+xml</dc:format>
        <dc:type
           rdf:resource="http://purl.org/dc/dcmitype/StillImage" />
        <dc:title />
      </cc:Work>
    </rdf:RDF>
  </metadata>
  <defs
     id="defs15">
    <rect
       x="128.54407"
       y="162.71401"
       width="261.15599"
       height="205.83322"
       id="rect844" />
  </defs>
  <sodipodi:namedview
     inkscape:document-rotation="0"
     pagecolor="#ffffff"
     bordercolor="#666666"
     borderopacity="1"
     objecttolerance="10"
     gridtolerance="10"
     guidetolerance="10"
     inkscape:pageopacity="0"
     inkscape:pageshadow="2"
     inkscape:window-width="1858"
     inkscape:window-height="1057"
     id="namedview13"
     showgrid="false"
     inkscape:zoom="1.2291505"
     inkscape:cx="235.12174"
     inkscape:cy="300.20734"
     inkscape:window-x="-8"
     inkscape:window-y="587"
     inkscape:window-maximized="1"
     inkscape:current-layer="g10"
     inkscape:showpageshadow="2"
     inkscape:pagecheckerboard="0"
     inkscape:deskcolor="#d1d1d1" />
  <g
     id="g10"
     transform="translate(7.3221304,-0.81357005)">
    <path
       inkscape:export-ydpi="96"
       inkscape:export-xdpi="96"
       d="M 248.67787,0 C 107.09587,0 -7.3221302,114.384 -7.3221302,256 c 0,141.582 114.3840002,256 256.0000002,256 141.582,0 256,-114.384 256,-256 0,-141.582 -114.384,-256 -256,-256 z m 0,492 c -130.131,0 -236,-105.869 -236,-236 0,-130.131 105.869,-236 236,-236 130.131,0 236,105.869 236,236 0,130.131 -105.869,236 -236,236 z"
       id="path4"
       style="fill:#f5777b;fill-opacity:1" />
    <circle
       inkscape:export-ydpi="96"
       inkscape:export-xdpi="96"
       cx="379.67786"
       cy="387"
       r="10"
       id="circle6"
       style="fill:#f5777b;fill-opacity:1" />
    <path
       inkscape:export-ydpi="96"
       inkscape:export-xdpi="96"
       d="m 248.67787,60 c -108.075,0 -196,87.925 -196,196 0,108.075 87.925,196 196,196 35.719,0 70.707,-9.747 101.18,-28.186 4.725,-2.859 6.238,-9.007 3.379,-13.732 -2.859,-4.726 -9.008,-6.238 -13.732,-3.379 -27.351,16.549 -58.758,25.297 -90.827,25.297 -97.047,0 -176,-78.953 -176,-176 0,-97.047 78.953,-176 176,-176 97.047,0 176,78.953 176,176 0,32.069 -8.748,63.476 -25.297,90.827 -2.859,4.725 -1.346,10.873 3.379,13.732 4.724,2.858 10.873,1.347 13.732,-3.379 18.439,-30.473 28.186,-65.461 28.186,-101.18 0,-108.075 -87.925,-196 -196,-196 z"
       id="path8"
       style="fill:#f5777b;fill-opacity:1" />
    <g
       aria-label="DC"
       transform="matrix(3.0657217,0,0,3.0657217,-285.38311,-369.7629)"
       id="text842"
       style="font-size:72px;line-height:1.25;font-family:Cambria;-inkscape-font-specification:'Cambria, Normal';white-space:pre;shape-inside:url(#rect844);display:inline;fill:#f5777b">
      <path
         d="m 132.76367,227.71875 v -1.72266 q 1.61719,-0.42187 2.32031,-0.80859 0.70313,-0.38672 1.08985,-0.98438 0.38672,-0.59765 0.5625,-1.72265 0.17578,-1.125 0.17578,-3.55078 v -30.41016 q 0,-2.46094 -0.17578,-3.55078 -0.17578,-1.125 -0.59766,-1.72266 -0.38672,-0.59765 -1.05469,-0.94922 -0.66796,-0.38671 -2.32031,-0.84375 v -1.72265 h 15.39844 q 6.64453,0 10.86328,1.47656 4.25391,1.44141 7.17188,4.28906 2.91796,2.84766 4.35937,7.10157 1.44141,4.21875 1.44141,10.08984 0,5.94141 -1.3711,10.47656 -1.33593,4.5 -3.9375,7.5586 -2.25,2.67187 -5.51953,4.39453 -2.70703,1.40625 -6.25781,2.0039 -3.55078,0.59766 -9.42188,0.59766 z m 10.72266,-3.26953 q 1.40625,0.14062 4.14844,0.14062 2.95312,0 5.27343,-0.49218 2.32032,-0.49219 4.21875,-1.54688 1.89844,-1.05469 3.41016,-2.91797 1.51172,-1.89844 2.46094,-4.32422 0.94922,-2.46093 1.37109,-5.44922 0.45703,-2.98828 0.45703,-6.53906 0,-7.13672 -2.07422,-11.70703 -2.03906,-4.60547 -5.80078,-6.71484 -3.72656,-2.10938 -8.92969,-2.10938 -2.39062,0 -4.53515,0.14063 z"
         id="path3685" />
      <path
         d="m 212.81445,180.75 v 9.73828 h -3.48047 q -0.84375,-3.05859 -2.14453,-4.85156 -1.30078,-1.82813 -3.02343,-2.60156 -1.72266,-0.77344 -4.14844,-0.77344 -3.6211,0 -6.46875,2.42578 -2.8125,2.39062 -4.42969,7.24219 -1.61719,4.8164 -1.61719,11.67187 0,6.89063 1.33594,11.77735 1.33594,4.85156 3.9375,7.34765 2.60156,2.46094 6.39844,2.46094 2.88281,0 4.71094,-0.80859 1.82812,-0.84375 3.05859,-2.63672 1.26562,-1.79297 2.39062,-5.27344 h 3.48047 v 10.05469 q -3.30468,0.8789 -6.78515,1.30078 -3.44532,0.45703 -7.59375,0.45703 -8.92969,0 -13.5,-6.04688 -4.57032,-6.04687 -4.57032,-18.03515 0,-7.52344 2.35547,-13.1836 2.39063,-5.66015 6.9961,-8.7539 4.60547,-3.09375 11.0039,-3.09375 3.19922,0 5.90625,0.35156 2.70703,0.31641 6.1875,1.23047 z"
         id="path3687" />
    </g>
  </g>
</svg>
