<?xml version="1.0" encoding="UTF-8" standalone="no"?>
<svg
   id="Capa_1"
   enable-background="new 0 0 512 512"
   height="512"
   viewBox="0 0 512 512"
   width="512"
   version="1.1"
   sodipodi:docname="cx-currency.svg"
   inkscape:version="1.2 (dc2aedaf03, 2022-05-15)"
   xmlns:inkscape="http://www.inkscape.org/namespaces/inkscape"
   xmlns:sodipodi="http://sodipodi.sourceforge.net/DTD/sodipodi-0.dtd"
   xmlns="http://www.w3.org/2000/svg"
   xmlns:svg="http://www.w3.org/2000/svg"
   xmlns:rdf="http://www.w3.org/1999/02/22-rdf-syntax-ns#"
   xmlns:cc="http://creativecommons.org/ns#"
   xmlns:dc="http://purl.org/dc/elements/1.1/">
  <metadata
     id="metadata17">
    <rdf:RDF>
      <cc:Work
         rdf:about="">
        <dc:format>image/svg+xml</dc:format>
        <dc:type
           rdf:resource="http://purl.org/dc/dcmitype/StillImage" />
        <dc:title />
      </cc:Work>
    </rdf:RDF>
  </metadata>
  <defs
     id="defs15">
    <rect
       x="128.54407"
       y="162.71401"
       width="261.15599"
       height="205.83322"
       id="rect844" />
  </defs>
  <sodipodi:namedview
     inkscape:document-rotation="0"
     pagecolor="#ffffff"
     bordercolor="#666666"
     borderopacity="1"
     objecttolerance="10"
     gridtolerance="10"
     guidetolerance="10"
     inkscape:pageopacity="0"
     inkscape:pageshadow="2"
     inkscape:window-width="1858"
     inkscape:window-height="1057"
     id="namedview13"
     showgrid="false"
     inkscape:zoom="1.2291505"
     inkscape:cx="177.35826"
     inkscape:cy="277.42738"
     inkscape:window-x="-8"
     inkscape:window-y="587"
     inkscape:window-maximized="1"
     inkscape:current-layer="g10"
     inkscape:showpageshadow="2"
     inkscape:pagecheckerboard="0"
     inkscape:deskcolor="#d1d1d1" />
  <g
     id="g10"
     transform="translate(7.3221304,-0.81357005)">
    <path
       d="M 248.67787,0 C 107.09587,0 -7.3221302,114.384 -7.3221302,256 c 0,141.582 114.3840002,256 256.0000002,256 141.582,0 256,-114.384 256,-256 0,-141.582 -114.384,-256 -256,-256 z m 0,492 c -130.131,0 -236,-105.869 -236,-236 0,-130.131 105.869,-236 236,-236 130.131,0 236,105.869 236,236 0,130.131 -105.869,236 -236,236 z"
       id="path4"
       style="fill:#ffba44;fill-opacity:1" />
    <circle
       cx="379.67786"
       cy="387"
       r="10"
       id="circle6"
       style="fill:#ffba44;fill-opacity:1" />
    <path
       d="m 248.67787,60 c -108.075,0 -196,87.925 -196,196 0,108.075 87.925,196 196,196 35.719,0 70.707,-9.747 101.18,-28.186 4.725,-2.859 6.238,-9.007 3.379,-13.732 -2.859,-4.726 -9.008,-6.238 -13.732,-3.379 -27.351,16.549 -58.758,25.297 -90.827,25.297 -97.047,0 -176,-78.953 -176,-176 0,-97.047 78.953,-176 176,-176 97.047,0 176,78.953 176,176 0,32.069 -8.748,63.476 -25.297,90.827 -2.859,4.725 -1.346,10.873 3.379,13.732 4.724,2.858 10.873,1.347 13.732,-3.379 18.439,-30.473 28.186,-65.461 28.186,-101.18 0,-108.075 -87.925,-196 -196,-196 z"
       id="path8"
       style="fill:#ffba44;fill-opacity:1" />
    <g
       aria-label="CX"
       transform="matrix(3.2708959,0,0,3.2708959,-313.36722,-412.07195)"
       id="text842"
       style="font-size:72px;line-height:1.25;font-family:Cambria;-inkscape-font-specification:'Cambria, Normal';white-space:pre;shape-inside:url(#rect844);display:inline;fill:#ffba44">
      <path
         d="m 165.17773,180.75 v 9.73828 h -3.48046 q -0.84375,-3.05859 -2.14454,-4.85156 -1.30078,-1.82813 -3.02343,-2.60156 -1.72266,-0.77344 -4.14844,-0.77344 -3.62109,0 -6.46875,2.42578 -2.8125,2.39062 -4.42969,7.24219 -1.61719,4.8164 -1.61719,11.67187 0,6.89063 1.33594,11.77735 1.33594,4.85156 3.9375,7.34765 2.60156,2.46094 6.39844,2.46094 2.88281,0 4.71094,-0.80859 1.82812,-0.84375 3.05859,-2.63672 1.26563,-1.79297 2.39063,-5.27344 h 3.48046 v 10.05469 q -3.30468,0.8789 -6.78515,1.30078 -3.44531,0.45703 -7.59375,0.45703 -8.92969,0 -13.5,-6.04688 -4.57031,-6.04687 -4.57031,-18.03515 0,-7.52344 2.35546,-13.1836 2.39063,-5.66015 6.9961,-8.7539 4.60547,-3.09375 11.0039,-3.09375 3.19922,0 5.90625,0.35156 2.70704,0.31641 6.1875,1.23047 z"
         id="path3837" />
      <path
         d="m 185.95508,179.73047 v 1.72265 q -1.6875,0.2461 -2.42578,0.91407 -0.73828,0.66797 -0.73828,1.82812 0,0.98438 0.66796,2.46094 0.66797,1.47656 1.89844,3.51562 l 5.09766,8.54297 5.02734,-8.12109 q 1.125,-1.82813 1.6875,-2.91797 0.5625,-1.08984 0.77344,-1.82812 0.24609,-0.73829 0.24609,-1.51172 0,-1.08985 -0.63281,-1.82813 -0.63281,-0.77344 -2.10937,-1.05469 v -1.72265 h 13.04296 v 1.72265 q -1.30078,0.42188 -2.35546,1.23047 -1.01954,0.8086 -2.21485,2.35547 -1.16015,1.54688 -3.33984,4.88672 l -7.94531,12.30469 8.92968,14.69531 q 1.89844,3.12891 2.70703,4.39453 0.84375,1.23047 1.54688,2.10938 0.73828,0.84375 1.54687,1.47656 0.84375,0.63281 2.07422,1.08984 v 1.72266 h -15.43359 v -1.72266 q 1.61719,-0.28125 2.39062,-0.8789 0.77344,-0.63282 0.77344,-1.86328 0,-0.98438 -0.52734,-2.17969 -0.49219,-1.19531 -1.54688,-2.95313 l -6.36328,-10.61718 -6.71484,11.0039 q -1.6875,2.77735 -1.6875,4.57031 0,1.16016 0.63281,1.89844 0.63281,0.73828 2.10938,1.01953 v 1.72266 H 169.7832 v -1.72266 q 1.30078,-0.38672 2.14453,-0.91406 0.84375,-0.5625 1.61719,-1.40625 0.77344,-0.84375 1.72266,-2.14453 0.94922,-1.30078 3.02344,-4.53516 l 8.29687,-12.9375 -9.91406,-16.3125 q -1.40625,-2.25 -2.14453,-3.26953 -0.70313,-1.01953 -1.33594,-1.65234 -0.59766,-0.63281 -1.08984,-0.87891 -0.49219,-0.28125 -1.125,-0.49219 v -1.72265 z"
         id="path3839" />
    </g>
  </g>
</svg>
