<?xml version="1.0" encoding="UTF-8" standalone="no"?>
<svg
   inkscape:export-ydpi="96"
   inkscape:export-xdpi="96"
   inkscape:export-filename="C:\Users\joco-\Pictures\FullCtxDev\roadmap\po-currency.png"
   id="Capa_1"
   enable-background="new 0 0 512 512"
   height="512"
   viewBox="0 0 512 512"
   width="512"
   version="1.1"
   sodipodi:docname="pr-currency.svg"
   inkscape:version="1.2 (dc2aedaf03, 2022-05-15)"
   xmlns:inkscape="http://www.inkscape.org/namespaces/inkscape"
   xmlns:sodipodi="http://sodipodi.sourceforge.net/DTD/sodipodi-0.dtd"
   xmlns="http://www.w3.org/2000/svg"
   xmlns:svg="http://www.w3.org/2000/svg"
   xmlns:rdf="http://www.w3.org/1999/02/22-rdf-syntax-ns#"
   xmlns:cc="http://creativecommons.org/ns#"
   xmlns:dc="http://purl.org/dc/elements/1.1/">
  <metadata
     id="metadata17">
    <rdf:RDF>
      <cc:Work
         rdf:about="">
        <dc:format>image/svg+xml</dc:format>
        <dc:type
           rdf:resource="http://purl.org/dc/dcmitype/StillImage" />
        <dc:title />
      </cc:Work>
    </rdf:RDF>
  </metadata>
  <defs
     id="defs15">
    <rect
       x="128.54407"
       y="162.71401"
       width="261.15599"
       height="205.83322"
       id="rect844" />
  </defs>
  <sodipodi:namedview
     inkscape:document-rotation="0"
     pagecolor="#ffffff"
     bordercolor="#666666"
     borderopacity="1"
     objecttolerance="10"
     gridtolerance="10"
     guidetolerance="10"
     inkscape:pageopacity="0"
     inkscape:pageshadow="2"
     inkscape:window-width="1858"
     inkscape:window-height="1057"
     id="namedview13"
     showgrid="false"
     inkscape:zoom="1.7382813"
     inkscape:cx="226.66067"
     inkscape:cy="268.65617"
     inkscape:window-x="-8"
     inkscape:window-y="587"
     inkscape:window-maximized="1"
     inkscape:current-layer="g10"
     inkscape:showpageshadow="2"
     inkscape:pagecheckerboard="0"
     inkscape:deskcolor="#d1d1d1" />
  <g
     id="g10"
     transform="translate(7.3221304,-0.81357005)">
    <path
       d="M 249.49144,0 C 107.90944,0 -6.5085602,114.384 -6.5085602,256 c 0,141.582 114.3840002,256 256.0000002,256 141.582,0 256,-114.384 256,-256 0,-141.582 -114.384,-256 -256,-256 z m 0,492 c -130.131,0 -236,-105.869 -236,-236 0,-130.131 105.869,-236 236,-236 130.131,0 236,105.869 236,236 0,130.131 -105.869,236 -236,236 z"
       id="path4"
       style="fill:#5dd362;fill-opacity:1" />
    <circle
       cx="380.49146"
       cy="387"
       r="10"
       id="circle6"
       style="fill:#5dd362;fill-opacity:1" />
    <path
       d="m 249.49144,60 c -108.075,0 -196,87.925 -196,196 0,108.075 87.925,196 196,196 35.719,0 70.707,-9.747 101.18,-28.186 4.725,-2.859 6.238,-9.007 3.379,-13.732 -2.859,-4.726 -9.008,-6.238 -13.732,-3.379 -27.351,16.549 -58.758,25.297 -90.827,25.297 -97.047,0 -176,-78.953 -176,-176 0,-97.047 78.953,-176 176,-176 97.047,0 176,78.953 176,176 0,32.069 -8.748,63.476 -25.297,90.827 -2.859,4.725 -1.346,10.873 3.379,13.732 4.724,2.858 10.873,1.347 13.732,-3.379 18.439,-30.473 28.186,-65.461 28.186,-101.18 0,-108.075 -87.925,-196 -196,-196 z"
       id="path8"
       style="fill:#5dd362;fill-opacity:1" />
    <g
       aria-label="PR"
       transform="matrix(3.1986541,0,0,3.1986541,-299.77381,-397.55137)"
       id="text842"
       style="font-size:72px;line-height:1.25;font-family:Cambria;-inkscape-font-specification:'Cambria, Normal';white-space:pre;shape-inside:url(#rect844);display:inline;fill:#5dd362">
      <path
         d="m 143.48633,218.82422 q 0,2.07422 0.21094,3.30469 0.24609,1.23046 0.70312,1.96875 0.49219,0.70312 1.30078,1.125 0.8086,0.38671 2.53125,0.77343 v 1.72266 h -15.43359 v -1.72266 q 2.17969,-0.5625 2.91797,-1.23047 0.73828,-0.70312 0.94922,-1.96875 0.24609,-1.26562 0.24609,-3.86718 v -30.41016 q 0,-2.42578 -0.17578,-3.51562 -0.17578,-1.125 -0.59766,-1.72266 -0.38672,-0.63281 -1.05469,-0.98438 -0.66796,-0.38671 -2.28515,-0.84375 v -1.72265 h 17.4375 q 8.22656,0 12.23437,3.16406 4.04297,3.12891 4.04297,9.5625 0,3.65625 -1.26562,6.57422 -1.26563,2.91797 -3.58594,4.78125 -2.32031,1.86328 -5.48438,2.67187 -3.16406,0.8086 -6.64453,0.8086 -3.90234,0 -6.04687,-0.14063 z m 0,-14.58985 h 4.07812 q 3.97266,0 6.53907,-1.01953 2.60156,-1.05468 3.97265,-3.44531 1.3711,-2.42578 1.3711,-6.39844 0,-3.02343 -0.8086,-5.02734 -0.80859,-2.03906 -2.25,-3.26953 -1.40625,-1.23047 -3.375,-1.72266 -1.96875,-0.52734 -4.28906,-0.52734 -3.48047,0 -5.23828,0.14062 z"
         id="path3908" />
      <path
         d="m 184.4082,206.87109 v 11.95313 q 0,2.53125 0.17578,3.6914 0.21094,1.125 0.59766,1.72266 0.38672,0.5625 1.05469,0.94922 0.66797,0.35156 2.28515,0.80859 v 1.72266 h -14.83593 v -1.72266 q 2.17968,-0.5625 2.91797,-1.23047 0.73828,-0.70312 0.94921,-1.96875 0.2461,-1.26562 0.2461,-3.86718 v -30.41016 q 0,-2.42578 -0.17578,-3.51562 -0.17578,-1.125 -0.59766,-1.72266 -0.38672,-0.63281 -1.05469,-0.98438 -0.66797,-0.38671 -2.28515,-0.84375 v -1.72265 h 17.40234 q 8.22656,0 12.30469,2.98828 4.07812,2.98828 4.07812,9.28125 0,4.81641 -2.67187,8.19141 -2.63672,3.375 -7.94531,5.27343 v 0.28125 q 2.14453,0.87891 3.65625,2.53125 1.54687,1.61719 3.41015,5.0625 l 3.16406,5.76563 q 1.3711,2.53125 2.35547,3.86719 0.98438,1.33593 2.00391,2.03906 1.01953,0.70312 2.70703,0.98437 v 1.72266 h -9.73828 q -1.33594,-1.86328 -2.53125,-4.00781 -1.19531,-2.14453 -2.35547,-4.35938 l -3.09375,-5.87109 q -1.40625,-2.67188 -2.32031,-3.9375 -0.87891,-1.26563 -1.65235,-1.75781 -0.73828,-0.52735 -1.61718,-0.70313 -0.84375,-0.21094 -2.56641,-0.21094 z m 0,-23.90625 v 20.88282 h 3.97266 q 3.05859,0 4.95703,-0.42188 1.89844,-0.45703 3.51563,-1.6875 1.61718,-1.23047 2.5664,-3.41016 0.98438,-2.21484 0.98438,-5.41406 0,-3.33984 -1.16016,-5.55469 -1.125,-2.21484 -3.44531,-3.375 -2.32031,-1.16015 -6.25781,-1.16015 -3.16407,0 -5.13282,0.14062 z"
         id="path3910" />
    </g>
  </g>
</svg>
