<?xml version="1.0" encoding="UTF-8" standalone="no"?>
<svg
   inkscape:export-ydpi="96"
   inkscape:export-xdpi="96"
   inkscape:export-filename="C:\Users\joco-\Pictures\FullCtxDev\roadmap\ut-currency.png"
   inkscape:version="1.2 (dc2aedaf03, 2022-05-15)"
   sodipodi:docname="ut-currency.svg"
   version="1.1"
   width="512"
   viewBox="0 0 512 512"
   height="512"
   enable-background="new 0 0 512 512"
   id="Capa_1"
   xmlns:inkscape="http://www.inkscape.org/namespaces/inkscape"
   xmlns:sodipodi="http://sodipodi.sourceforge.net/DTD/sodipodi-0.dtd"
   xmlns="http://www.w3.org/2000/svg"
   xmlns:svg="http://www.w3.org/2000/svg"
   xmlns:rdf="http://www.w3.org/1999/02/22-rdf-syntax-ns#"
   xmlns:cc="http://creativecommons.org/ns#"
   xmlns:dc="http://purl.org/dc/elements/1.1/">
  <metadata
     id="metadata17">
    <rdf:RDF>
      <cc:Work
         rdf:about="">
        <dc:format>image/svg+xml</dc:format>
        <dc:type
           rdf:resource="http://purl.org/dc/dcmitype/StillImage" />
        <dc:title />
      </cc:Work>
    </rdf:RDF>
  </metadata>
  <defs
     id="defs15">
    <rect
       id="rect844"
       height="205.83322"
       width="261.15599"
       y="162.71401"
       x="128.54407" />
  </defs>
  <sodipodi:namedview
     inkscape:current-layer="g10"
     inkscape:window-maximized="1"
     inkscape:window-y="587"
     inkscape:window-x="-8"
     inkscape:cy="277.42738"
     inkscape:cx="177.35826"
     inkscape:zoom="1.2291505"
     showgrid="false"
     id="namedview13"
     inkscape:window-height="1057"
     inkscape:window-width="1858"
     inkscape:pageshadow="2"
     inkscape:pageopacity="0"
     guidetolerance="10"
     gridtolerance="10"
     objecttolerance="10"
     borderopacity="1"
     bordercolor="#666666"
     pagecolor="#ffffff"
     inkscape:showpageshadow="2"
     inkscape:pagecheckerboard="0"
     inkscape:deskcolor="#d1d1d1" />
  <g
     transform="translate(7.3221304,-0.81357005)"
     id="g10">
    <path
       style="fill:#53329c;fill-opacity:1"
       id="path4"
       d="m 249.49144,0.81357005 c -141.582,0 -256.0000004,114.38399995 -256.0000004,255.99999995 0,141.582 114.3840004,256 256.0000004,256 141.582,0 256,-114.384 256,-256 0,-141.582 -114.384,-255.99999995 -256,-255.99999995 z m 0,491.99999995 c -130.131,0 -236,-105.869 -236,-236 0,-130.131 105.869,-236 236,-236 130.131,0 236,105.869 236,236 0,130.131 -105.869,236 -236,236 z" />
    <circle
       style="fill:#53329c;fill-opacity:1"
       id="circle6"
       r="10"
       cy="387.81357"
       cx="380.49142" />
    <path
       style="fill:#53329c;fill-opacity:1"
       id="path8"
       d="m 249.49144,60.81357 c -108.075,0 -196,87.925 -196,196 0,108.075 87.925,196 196,196 35.719,0 70.707,-9.747 101.18,-28.186 4.725,-2.859 6.238,-9.007 3.379,-13.732 -2.859,-4.726 -9.008,-6.238 -13.732,-3.379 -27.351,16.549 -58.758,25.297 -90.827,25.297 -97.047,0 -176,-78.953 -176,-176 0,-97.047 78.953,-176 176,-176 97.047,0 176,78.953 176,176 0,32.069 -8.748,63.476 -25.297,90.827 -2.859,4.725 -1.346,10.873 3.379,13.732 4.724,2.858 10.873,1.347 13.732,-3.379 18.439,-30.473 28.186,-65.461 28.186,-101.18 0,-108.075 -87.925,-196 -196,-196 z" />
    <g
       aria-label="UT"
       transform="matrix(3.0055154,0,0,3.0055154,-267.82715,-349.82134)"
       id="text842"
       style="font-size:72px;line-height:1.25;font-family:Cambria;-inkscape-font-specification:'Cambria, Normal';white-space:pre;shape-inside:url(#rect844);display:inline;fill:#53329c">
      <path
         d="m 168.0957,211.125 q 0,3.83203 -0.70312,6.60937 -0.66797,2.63672 -2.00391,4.67579 -1.23047,1.82812 -3.05859,3.1289 -1.82813,1.26563 -4.42969,2.00391 -2.60156,0.73828 -6.11719,0.73828 -4.2539,0 -7.3125,-0.94922 -3.02343,-0.94922 -5.02734,-3.09375 -1.96875,-2.17969 -2.84766,-5.09766 -0.8789,-2.95312 -0.8789,-7.48828 v -23.13281 q 0,-2.74219 -0.17578,-3.69141 -0.17579,-0.98437 -0.52735,-1.54687 -0.3164,-0.5625 -0.94922,-0.94922 -0.63281,-0.42187 -2.35547,-0.87891 v -1.72265 h 14.76563 v 1.72265 q -1.96875,0.49219 -2.74219,1.125 -0.77344,0.59766 -1.05469,1.82813 -0.28125,1.23047 -0.28125,4.11328 v 24.89063 q 0,3.41015 0.70313,5.73046 0.73828,2.32032 2.03906,3.6211 1.30078,1.26562 3.09375,1.86328 1.79297,0.5625 4.46485,0.5625 2.46093,0 4.32421,-0.84375 1.86329,-0.87891 3.09375,-2.63672 1.26563,-1.75781 1.72266,-4.32422 0.45703,-2.5664 0.45703,-6.89062 v -21.97266 q 0,-3.05859 -0.3164,-4.18359 -0.28125,-1.125 -0.98438,-1.72266 -0.66797,-0.59766 -2.8125,-1.16016 v -1.72265 h 14.02734 v 1.72265 q -2.03906,0.52735 -2.8125,1.16016 -0.73828,0.63281 -1.01953,1.82813 -0.28125,1.19531 -0.28125,4.07812 z"
         id="path3967" />
      <path
         d="m 177.51758,179.73047 h 38.03906 v 12.23437 h -3.44531 q -0.77344,-3.02343 -1.54688,-4.78125 -0.73828,-1.75781 -1.58203,-2.67187 -0.84375,-0.91406 -1.82812,-1.30078 -0.94922,-0.38672 -2.88282,-0.38672 h -4.46484 v 36 q 0,2.07422 0.21094,3.30469 0.24609,1.23046 0.70312,1.96875 0.49219,0.70312 1.30078,1.125 0.8086,0.38671 2.53125,0.77343 v 1.72266 h -16.0664 v -1.72266 q 1.05469,-0.24609 1.86328,-0.52734 0.80859,-0.28125 1.30078,-0.66797 0.52734,-0.42187 0.84375,-1.05469 0.35156,-0.63281 0.52734,-1.72265 0.21094,-1.08985 0.21094,-3.19922 v -36 h -4.42969 q -1.65234,0 -2.74218,0.3164 -1.05469,0.31641 -1.96875,1.33594 -0.91407,0.98438 -1.6875,2.84766 -0.73828,1.82812 -1.40625,4.64062 h -3.48047 z"
         id="path3969" />
    </g>
  </g>
</svg>
