<svg id="Layer_1" enable-background="new 0 0 512 512" height="512" viewBox="0 0 512 512" width="512" xmlns="http://www.w3.org/2000/svg"><g><path d="m244.999 5.501c-39.2 0-76.24 9.222-109.096 25.59v.001l-100.97 345.541c42.855 71.218 120.892 118.865 210.066 118.865 135.309 0 244.999-109.69 244.999-244.999s-109.69-244.998-244.999-244.998z" fill="#3b3868"/><path d="m490.535 31.092h-354.632c-26.908 13.404-50.997 31.614-71.156 53.502h373.638c10.878 0 19.727 8.85 19.727 19.727v220.549h32.422c11.836 0 21.466-9.63 21.466-21.465v-250.848c0-11.835-9.629-21.465-21.465-21.465z" fill="#49ce8b"/><path d="m165.134 31.092h-29.231c-26.908 13.404-50.997 31.614-71.156 53.502h115.993c-.406-1.421-1.196-2.715-2.347-3.679-7.434-6.232-6.847-13.939-5.356-18.85.888-2.925-.122-6.077-2.465-8.04-8.756-7.334-7.32-16.072-5.862-20.334.288-.845.426-1.724.424-2.599z" fill="#36b277"/><path d="m477.347 57.166h-382.82c-10.668 8.314-20.629 17.491-29.78 27.427h373.638c10.878 0 19.727 8.85 19.727 19.727v194.474h19.236c4.738 0 8.578-3.84 8.578-8.577v-224.473c-.001-4.737-3.841-8.578-8.579-8.578z" fill="#36b277"/><path d="m64.747 84.594h115.993c-.406-1.421-1.196-2.715-2.347-3.679-7.434-6.232-6.847-13.939-5.356-18.85.5-1.647.379-3.36-.223-4.898h-78.287c-10.668 8.313-20.629 17.491-29.78 27.427z" fill="#279b61"/><path d="m477.347 57.166h-67.767c-.586 3.547-.906 7.184-.906 10.897 0 5.707.722 11.245 2.077 16.53h27.633c10.878 0 19.727 8.85 19.727 19.727v27.912c5.401 1.42 11.069 2.184 16.917 2.184 3.713 0 7.35-.319 10.897-.906v-67.766c0-4.737-3.84-8.578-8.578-8.578z" fill="#279b61"/><path d="m438.385 82.855h-372.033c-41.147 43.823-66.352 102.788-66.352 167.644 0 46.136 12.761 89.287 34.933 126.134h403.451c11.836 0 21.466-9.63 21.466-21.465v-250.847c0-11.836-9.629-21.466-21.465-21.466z" fill="#49ce8b"/><path d="m0 250.499c0 46.136 12.761 89.287 34.933 126.134h173.382v-47.804c0-2.91-1.38-5.594-3.6-7.475-3.178-2.694-3.957-6.049-3.891-8.846.08-3.403-1.501-6.582-4.285-8.542-8.302-5.845-8.615-14.148-8.316-17.671.108-1.281-.047-2.567-.437-3.792l-1.007-3.165c-.794-2.496-.581-5.203.618-7.531 4.701-9.127 14.942-33.758-6.339-42.063-18.811-7.341-21.045-23.387-20.79-31.946.101-3.361-1.501-6.563-4.287-8.446-10.883-7.359-12.508-17.245-12.104-23.883.259-4.245-2.22-8.141-6.135-9.802-23.789-10.089-23.086-31.494-21.289-41.445.575-3.185-.502-6.441-2.792-8.728-5.556-5.547-6.607-11.224-6.275-15.506.207-2.66-.675-5.196-2.307-7.133h-38.727c-41.147 43.823-66.352 102.787-66.352 167.644z" fill="#36b277"/><path d="m425.198 108.93h-380.168c-28.358 39.976-45.03 88.824-45.03 141.569 0 35.646 7.624 69.507 21.314 100.059h403.883c4.737 0 8.578-3.84 8.578-8.578v-224.472c0-4.738-3.84-8.578-8.577-8.578z" fill="#36b277"/><g fill="#279b61"><path d="m0 250.499c0 35.646 7.624 69.507 21.314 100.059h187.001v-21.729c0-2.91-1.38-5.594-3.6-7.475-3.178-2.694-3.957-6.049-3.891-8.846.08-3.403-1.501-6.582-4.285-8.542-8.302-5.845-8.615-14.148-8.316-17.671.108-1.281-.047-2.567-.437-3.792l-1.007-3.165c-.794-2.496-.581-5.203.618-7.531 4.701-9.127 14.942-33.758-6.339-42.063-18.811-7.341-21.045-23.387-20.79-31.946.101-3.361-1.501-6.563-4.287-8.446-10.883-7.359-12.508-17.245-12.104-23.883.259-4.245-2.22-8.141-6.135-9.802-23.789-10.089-23.086-31.494-21.289-41.445.326-1.807.104-3.63-.552-5.293h-70.871c-28.358 39.977-45.03 88.825-45.03 141.57z"/><path d="m433.775 117.508v67.767c-3.547.587-7.184.906-10.897.906-36.646 0-66.354-29.707-66.354-66.353 0-3.713.32-7.35.906-10.897h67.767c4.738-.001 8.578 3.84 8.578 8.577z"/><path d="m433.775 341.98v-67.767c-3.547-.586-7.184-.906-10.897-.906-36.646 0-66.354 29.707-66.354 66.353 0 3.713.32 7.35.906 10.897h67.767c4.738.001 8.578-3.839 8.578-8.577z"/><circle cx="181.058" cy="229.744" r="79.963"/></g><path d="m196.539 303.966c-8.302-5.845-8.615-14.148-8.316-17.671.108-1.281-.047-2.567-.437-3.792l-1.007-3.165c-.794-2.496-.581-5.203.618-7.531 4.701-9.127 14.942-33.758-6.339-42.063-18.811-7.341-21.045-23.387-20.79-31.946.101-3.361-1.501-6.563-4.287-8.446-10.883-7.359-12.508-17.245-12.104-23.883.126-2.075-.404-4.064-1.433-5.751-24.65 13.622-41.35 39.869-41.35 70.025 0 44.163 35.801 79.963 79.963 79.963 6.403 0 12.623-.774 18.591-2.196-.73-1.385-1.777-2.607-3.109-3.544z" fill="#1c8c51"/><ellipse cx="399.143" cy="408.927" fill="#ffdd40" rx="97.573" ry="97.573" transform="matrix(.124 -.992 .992 .124 -55.995 754.448)"/><path d="m301.57 408.927c0 53.888 43.685 97.573 97.573 97.573 26.051 0 49.699-10.229 67.198-26.865-.45-.389-1.008-.657-1.629-.738-6.085-.79-7.197-4.775-7.223-7.492-.014-1.45-.987-2.694-2.395-3.043-6.699-1.659-7.89-6.509-7.95-9.512-.029-1.459-1.108-2.666-2.541-2.941-23.868-4.58-22.357-23.192-21.755-27.144.085-.56.024-1.126-.193-1.65-1.177-2.832-6.111-11.689-23.512-18.189-17.01-6.354-17.431-24.341-16.982-30.918.097-1.423-.798-2.69-2.146-3.155-13.544-4.666-13.443-17.159-12.669-22.696.209-1.498-.69-2.887-2.117-3.387-6.72-2.356-6.902-8.096-6.372-11.417.22-1.377-.534-2.68-1.811-3.239-4.429-1.941-4.929-5.974-4.725-8.594.054-.702-.13-1.372-.486-1.931-29.972 16.652-50.265 48.619-50.265 85.338z" fill="#ffb332"/><ellipse cx="399.143" cy="408.927" fill="#fceca9" rx="67.166" ry="67.166" transform="matrix(.707 -.707 .707 .707 -172.248 402.009)"/><path d="m446.249 456.789c-.438-.438-1.003-.757-1.646-.88-23.868-4.58-22.357-23.192-21.755-27.144.085-.56.024-1.126-.193-1.65-1.177-2.832-6.111-11.689-23.512-18.189-17.01-6.354-17.431-24.341-16.982-30.918.097-1.423-.798-2.69-2.146-3.155-13.544-4.666-13.443-17.159-12.669-22.696.109-.777-.086-1.523-.494-2.133-20.785 11.419-34.876 33.512-34.876 58.901 0 37.095 30.071 67.166 67.166 67.166 18.356.001 34.984-7.369 47.107-19.302z" fill="#ffdd40"/><path d="m399.143 341.761c37.095 0 67.166 30.071 67.166 67.166s-30.071 67.166-67.166 67.166-67.166-30.071-67.166-67.166 30.071-67.166 67.166-67.166m0-16.721c-46.255 0-83.887 37.631-83.887 83.886s37.631 83.887 83.887 83.887c46.255 0 83.886-37.631 83.886-83.887s-37.631-83.886-83.886-83.886z" fill="#ffb332"/><path d="m399.143 492.813c22.383 0 42.731-8.829 57.788-23.167-.424-.622-1.06-1.092-1.837-1.284-6.699-1.659-7.89-6.509-7.95-9.512-.016-.804-.358-1.523-.895-2.06-12.123 11.933-28.751 19.303-47.106 19.303-37.095 0-67.166-30.071-67.166-67.166 0-25.389 14.091-47.483 34.876-58.901-.377-.565-.937-1.014-1.623-1.255-6.72-2.356-6.902-8.096-6.372-11.417.103-.645-.015-1.27-.293-1.814-25.801 14.323-43.308 41.844-43.308 73.387 0 46.255 37.631 83.886 83.886 83.886z" fill="#ff9100"/><circle cx="327.383" cy="408.927" fill="#ffdd40" r="97.573"/><path d="m229.81 408.927c0 53.888 43.685 97.573 97.573 97.573 26.051 0 49.698-10.229 67.198-26.865-.45-.389-1.008-.657-1.629-.738-6.085-.79-7.197-4.775-7.223-7.492-.014-1.45-.987-2.694-2.395-3.043-6.699-1.659-7.89-6.509-7.95-9.512-.029-1.459-1.109-2.666-2.541-2.941-23.868-4.58-22.357-23.192-21.755-27.144.085-.56.024-1.126-.193-1.65-1.176-2.832-6.111-11.689-23.512-18.189-17.01-6.354-17.431-24.341-16.982-30.918.097-1.423-.797-2.69-2.146-3.155-13.543-4.666-13.443-17.159-12.669-22.696.209-1.498-.69-2.887-2.117-3.387-6.72-2.356-6.902-8.096-6.372-11.417.22-1.377-.534-2.68-1.811-3.239-4.429-1.941-4.929-5.974-4.726-8.594.054-.702-.13-1.372-.486-1.931-29.971 16.652-50.264 48.619-50.264 85.338z" fill="#ffb332"/><ellipse cx="327.383" cy="408.927" fill="#fceca9" rx="67.166" ry="67.166" transform="matrix(.399 -.917 .917 .399 -178.233 545.868)"/><path d="m374.489 456.789c-.438-.438-1.003-.757-1.646-.88-23.868-4.58-22.357-23.192-21.755-27.144.085-.56.024-1.126-.193-1.65-1.176-2.832-6.111-11.689-23.512-18.189-17.01-6.354-17.431-24.341-16.982-30.918.097-1.423-.797-2.69-2.146-3.155-13.543-4.666-13.443-17.159-12.669-22.696.109-.777-.086-1.523-.494-2.133-20.785 11.419-34.876 33.512-34.876 58.901 0 37.095 30.071 67.166 67.166 67.166 18.356.001 34.984-7.369 47.107-19.302z" fill="#ffdd40"/><path d="m327.383 341.761c37.095 0 67.166 30.071 67.166 67.166s-30.071 67.166-67.166 67.166-67.166-30.071-67.166-67.166 30.071-67.166 67.166-67.166m0-16.721c-46.255 0-83.887 37.631-83.887 83.886s37.631 83.887 83.887 83.887c46.255 0 83.886-37.631 83.886-83.887s-37.631-83.886-83.886-83.886z" fill="#ffb332"/><path d="m327.383 492.813c22.383 0 42.73-8.829 57.788-23.167-.424-.622-1.06-1.092-1.837-1.284-6.699-1.659-7.89-6.509-7.95-9.512-.016-.804-.358-1.523-.895-2.06-12.123 11.933-28.751 19.303-47.106 19.303-37.095 0-67.166-30.071-67.166-67.166 0-25.389 14.091-47.483 34.876-58.901-.378-.565-.937-1.014-1.623-1.255-6.72-2.356-6.902-8.096-6.372-11.417.103-.645-.015-1.27-.293-1.814-25.801 14.323-43.308 41.844-43.308 73.387 0 46.255 37.631 83.886 83.886 83.886z" fill="#ff9100"/><ellipse cx="255.623" cy="408.927" fill="#ffdd40" rx="97.573" ry="97.573" transform="matrix(.128 -.992 .992 .128 -182.605 610.223)"/><path d="m158.05 408.927c0 53.888 43.685 97.573 97.573 97.573 26.051 0 49.699-10.229 67.198-26.865-.451-.389-1.008-.657-1.629-.738-6.085-.79-7.197-4.775-7.223-7.492-.014-1.45-.987-2.694-2.395-3.043-6.699-1.659-7.89-6.509-7.95-9.512-.029-1.459-1.108-2.666-2.541-2.941-23.868-4.58-22.357-23.192-21.755-27.144.085-.56.024-1.126-.193-1.65-1.176-2.832-6.111-11.689-23.512-18.189-17.01-6.354-17.431-24.341-16.982-30.918.097-1.423-.798-2.69-2.146-3.155-13.544-4.666-13.443-17.159-12.669-22.696.209-1.498-.69-2.887-2.117-3.387-6.72-2.356-6.902-8.096-6.372-11.417.219-1.377-.534-2.68-1.811-3.239-4.429-1.941-4.929-5.974-4.726-8.594.054-.702-.13-1.372-.485-1.931-29.972 16.652-50.265 48.619-50.265 85.338z" fill="#ffb332"/><ellipse cx="255.623" cy="408.927" fill="#fceca9" rx="67.166" ry="67.166" transform="matrix(.707 -.707 .707 .707 -214.285 300.525)"/><path d="m302.729 456.789c-.438-.438-1.003-.757-1.646-.88-23.868-4.58-22.357-23.192-21.755-27.144.085-.56.024-1.126-.193-1.65-1.176-2.832-6.111-11.689-23.512-18.189-17.01-6.354-17.431-24.341-16.982-30.918.097-1.423-.798-2.69-2.146-3.155-13.544-4.666-13.443-17.159-12.669-22.696.109-.777-.086-1.523-.494-2.133-20.785 11.419-34.876 33.512-34.876 58.901 0 37.095 30.071 67.166 67.166 67.166 18.356.001 34.984-7.369 47.107-19.302z" fill="#ffdd40"/><path d="m255.623 341.761c37.095 0 67.166 30.071 67.166 67.166s-30.071 67.166-67.166 67.166-67.166-30.071-67.166-67.166 30.071-67.166 67.166-67.166m0-16.721c-46.255 0-83.887 37.631-83.887 83.886s37.631 83.887 83.887 83.887c46.255 0 83.886-37.631 83.886-83.887s-37.631-83.886-83.886-83.886z" fill="#ffb332"/><path d="m255.623 492.813c22.383 0 42.731-8.829 57.788-23.167-.424-.622-1.06-1.092-1.837-1.284-6.699-1.659-7.89-6.509-7.95-9.512-.016-.804-.358-1.523-.895-2.06-12.123 11.933-28.751 19.303-47.106 19.303-37.095 0-67.166-30.071-67.166-67.166 0-25.389 14.091-47.483 34.876-58.901-.377-.565-.937-1.014-1.623-1.255-6.72-2.356-6.902-8.096-6.372-11.417.103-.645-.015-1.27-.293-1.814-25.801 14.323-43.308 41.844-43.308 73.387 0 46.255 37.631 83.886 83.886 83.886z" fill="#ff9100"/><g><path d="m255.623 459.548c-4.617 0-8.36-3.743-8.36-8.36v-10.969c0-4.617 3.743-8.36 8.36-8.36s8.36 3.743 8.36 8.36v10.969c0 4.617-3.743 8.36-8.36 8.36z" fill="#ff9100"/></g><g><path d="m255.623 385.306c-4.617 0-8.36-3.743-8.36-8.36v-10.28c0-4.617 3.743-8.36 8.36-8.36s8.36 3.743 8.36 8.36v10.28c0 4.617-3.743 8.36-8.36 8.36z" fill="#ff9100"/></g><g><path d="m254.605 448.581c-7.548 0-12.266-.877-19.367-5.522-3.864-2.527-4.947-7.709-2.42-11.572 2.527-3.866 7.708-4.948 11.572-2.42 4.013 2.625 5.323 2.824 10.807 2.792 5.265-.035 7.364-4.168 7.773-6.604.533-3.169-.844-5.358-4.09-6.505-.057-.02-.113-.041-.169-.062l-12.011-4.539c-10.79-3.859-16.781-13.897-14.914-25.008 1.989-11.829 12.146-20.473 24.151-20.553 7.974-.047 12.753.732 20.072 5.52 3.864 2.528 4.947 7.709 2.419 11.573-2.528 3.863-7.71 4.947-11.573 2.419-4.012-2.625-5.32-2.829-10.806-2.792-5.265.035-7.364 4.168-7.773 6.605-.532 3.169.844 5.357 4.09 6.505.057.02.113.041.169.062l12.011 4.539c10.791 3.859 16.781 13.897 14.913 25.008-1.988 11.829-12.146 20.473-24.151 20.553-.237 0-.471.001-.703.001z" fill="#ffb332"/></g><path d="m338.19 238.436h-29.518c-4.8 0-8.692-3.891-8.692-8.692s3.891-8.692 8.692-8.692h29.518c4.8 0 8.692 3.891 8.692 8.692s-3.891 8.692-8.692 8.692z" fill="#49ce8b"/><path d="m53.443 238.436h-29.517c-4.8 0-8.692-3.891-8.692-8.692s3.891-8.692 8.692-8.692h29.518c4.8 0 8.692 3.891 8.692 8.692-.001 4.801-3.893 8.692-8.693 8.692z" fill="#36b277"/><g><path d="m181.058 288.749c-4.8 0-8.692-3.891-8.692-8.692v-13.059c0-4.801 3.891-8.692 8.692-8.692 4.8 0 8.692 3.891 8.692 8.692v13.059c-.001 4.801-3.892 8.692-8.692 8.692z" fill="#49ce8b"/></g><g><path d="m181.058 200.363c-4.8 0-8.692-3.891-8.692-8.692v-12.24c0-4.801 3.891-8.692 8.692-8.692 4.8 0 8.692 3.891 8.692 8.692v12.24c-.001 4.801-3.892 8.692-8.692 8.692z" fill="#49ce8b"/></g><g><path d="m179.799 275.692c-8.862.001-14.092-.986-22.32-6.368-4.017-2.628-5.143-8.015-2.515-12.031 2.627-4.019 8.014-5.144 12.032-2.516 5.039 3.297 6.798 3.558 13.564 3.53 6.184-.041 9.773-4.65 10.49-8.915.423-2.515.245-7.045-5.693-9.144-.059-.02-.118-.042-.176-.065l-14.309-5.407c-12.259-4.38-19.067-15.773-16.947-28.381 1.943-11.557 12.019-23.312 27.517-23.415 9.389-.093 14.701.808 23.196 6.365 4.017 2.628 5.143 8.015 2.515 12.031-2.628 4.017-8.015 5.141-12.032 2.516-5.038-3.296-6.807-3.569-13.564-3.529-6.184.041-9.773 4.65-10.49 8.915-.423 2.514-.245 7.044 5.693 9.143.059.02.118.042.176.064l14.309 5.407c12.259 4.38 19.067 15.773 16.947 28.381-1.943 11.558-12.02 23.314-27.517 23.416-.296.003-.588.003-.876.003z" fill="#67e8a4"/></g></g></svg>