<svg xmlns="http://www.w3.org/2000/svg" viewBox="0 0 300 289"><defs/><path fill="#404040" d="M0 0h300v289H0z"/><g fill-opacity=".5" transform="translate(.6 .6) scale(1.17188)"><circle cx="121" cy="121" r="190" fill="#fff"/><circle r="1" transform="matrix(63.45306 -4.01151 1.80862 28.60835 124.4 54.7)"/><circle r="1" fill="#fff" transform="rotate(3 -988.3 591.6) scale(45.53353 248.66731)"/><circle r="1" fill="#fff" transform="matrix(-7.9185 -254.87702 44.89516 -1.3948 238 97.4)"/><ellipse cx="184" cy="91" rx="15" ry="41"/><path fill="#080808" d="M18 204l208 4-91 54z"/><circle r="1" fill="#fff" transform="matrix(44.78621 -5.58 29.94141 240.31602 240.5 87.8)"/><circle r="1" fill="#fff" transform="matrix(-221.59797 41.86697 -4.99288 -26.42687 91.4 2.7)"/><ellipse cx="126" cy="51" rx="60" ry="21"/><circle cx="16" cy="145" r="69" fill="#fff"/><path fill="#fff" d="M163.2 175.3l-1.8 19.2L271 223.8V80.4z"/><ellipse cx="122" cy="207" fill="#868686" rx="37" ry="57"/></g></svg>