<svg xmlns="http://www.w3.org/2000/svg" viewBox="0 0 300 168"><defs/><path fill="#60342b" d="M0 0h300v168H0z"/><g fill-opacity=".5" transform="translate(.6 .6) scale(1.17188)"><circle cx="116" cy="39" r="175" fill="#00202c"/><circle r="1" fill="#daa9af" transform="matrix(7.58172 34.19036 -18.01536 3.9949 152.7 70.7)"/><path fill="#a17d83" d="M90 90l76-49-37 64z"/><ellipse cx="64" cy="44" fill="#181a1b" rx="79" ry="45"/><circle r="1" fill="#c0999d" transform="rotate(72.7 18.8 173.1) scale(4.18805 20.49022)"/><path fill="#f4c4a7" d="M144.9 79.4l5-39.2 12.1 5-6.8 30.8z"/><circle r="1" fill="#101111" transform="matrix(-19.46923 55.48284 -29.46719 -10.3402 230 122.5)"/><path fill="#040806" d="M156.2 61l13.2-24.6 12.4 6.5-13.2 24.7z"/><path fill="#3b628e" d="M121.6 118.6l3.7 9.2L163 131l-3.4-12z"/><path d="M129.2 118.6l.6-18 25 .8-.6 18z"/><path fill="#1c1b1c" d="M124.9 70.7L-16 108.9 8.6 27.7l111.3 64z"/><ellipse cx="137" cy="71" fill="#b893a3" rx="13" ry="10"/></g></svg>