<svg xmlns="http://www.w3.org/2000/svg" viewBox="0 0 300 168"><defs/><path fill="#332142" d="M0 0h300v168H0z"/><g fill-opacity=".5" transform="translate(.6 .6) scale(1.17188)"><circle r="1" fill="#1998b1" transform="matrix(100.59326 120.853 -95.30135 79.32507 152 62.8)"/><ellipse cx="131" cy="60" fill="#e2897d" rx="23" ry="35"/><circle r="1" fill="#350000" transform="matrix(14.94583 -9.96763 14.61919 21.92054 119.3 100)"/><circle r="1" fill="#003d56" transform="rotate(-7.9 677.1 -244.1) scale(55.58985 225.96988)"/><circle r="1" fill="#1b81ab" transform="matrix(51.2661 -69.7775 77.66782 57.0632 234.6 30.3)"/><circle r="1" fill="#835f69" transform="matrix(-33.5943 -.54784 .19303 -11.8366 99.8 81.8)"/><path fill="#ffceae" d="M123 64l10-40 7 47z"/><path fill="#c38685" d="M139 89h47v9h-47z"/><circle r="1" fill="#03577a" transform="matrix(-9.60717 -29.22038 13.57842 -4.46436 105.8 22.4)"/><ellipse cx="122" cy="103" rx="18" ry="11"/><circle r="1" fill="#0a3e57" transform="matrix(-35.6228 8.7498 -29.91794 -121.80402 24 90.5)"/><path fill="#d1b4ad" d="M63 82l19-13 6 11z"/></g></svg>