<svg xmlns="http://www.w3.org/2000/svg" viewBox="0 0 300 168"><defs/><path fill="#1f3747" d="M0 0h300v168H0z"/><g fill-opacity=".5" transform="translate(.6 .6) scale(1.17188)"><ellipse cx="20" cy="71" fill="#fff" rx="90" ry="74"/><ellipse cx="18" cy="74" fill="#fff" rx="74" ry="75"/><circle r="1" fill="#417ca7" transform="matrix(163.52344 195.66575 -63.4989 53.06784 175.7 28.4)"/><path fill="#fff" d="M-16 159l140-80-99-95z"/><circle r="1" fill="#005c86" transform="matrix(-17.48839 -30.28672 48.92028 -28.24792 110.7 134.4)"/><path fill="#db8b7e" d="M248.8 128.6l-43.5-24.5 14.2-20 14.3-20.8z"/><circle r="1" fill="#003b5a" transform="rotate(-44.7 54.4 -89.6) scale(16.46469 87.39947)"/><ellipse cx="34" cy="74" fill="#34312f" rx="72" ry="3"/><path fill="#fff" d="M-16 96l129-18-78 79z"/><ellipse cx="31" cy="62" rx="23" ry="3"/><ellipse cx="160" cy="54" fill="#7f001e" rx="43" ry="9"/><ellipse fill="#fff" rx="11" ry="143"/></g></svg>