<svg xmlns="http://www.w3.org/2000/svg" viewBox="0 0 300 199"><defs/><path fill="#383f5a" d="M0 0h300v199H0z"/><g fill-opacity=".5" transform="translate(.6 .6) scale(1.17188)"><circle cx="130" r="131" fill="#000006"/><path fill="#ffdbaa" d="M79 172l-53-15 60-74z"/><circle r="1" fill="#ffab78" transform="matrix(-41.22009 -.54166 .14338 -10.91092 193.1 150.7)"/><path fill="#ffffec" d="M67 185H49.9l29.6-89 6.4-19.7z"/><circle r="1" fill="#000a1f" transform="rotate(-35.9 145.1 -319) scale(53.24574 124.84149)"/><circle r="1" fill="#000a1a" transform="matrix(107.215 -86.64607 30.00898 37.13282 27.4 36.7)"/><ellipse cx="51" cy="95" fill="#1d2d4c" rx="23" ry="46"/><circle r="1" fill="#54546a" transform="matrix(5.02946 24.50162 -63.24924 12.9832 141.1 131.7)"/><path fill="#b97869" d="M0 138h51v21H0z"/><path fill="#c7b38b" d="M74.3 100.2l29.7-70 3.7 1.6-29.7 70z"/><path fill="#ffc09b" d="M173 147h39v12h-39z"/><ellipse cx="192" cy="169" fill="#252508" rx="122" ry="11"/></g></svg>