<svg xmlns="http://www.w3.org/2000/svg" viewBox="0 0 300 168"><defs/><path fill="#4b282a" d="M0 0h300v168H0z"/><g fill-opacity=".5" transform="translate(.6 .6) scale(1.17188)"><circle cx="143" cy="115" r="191" fill="#01201e"/><circle r="1" fill="#434545" transform="matrix(40.69526 10.39344 -4.6195 18.08756 36.5 119.4)"/><circle r="1" fill="#572c2c" transform="matrix(50.79912 -5.5336 1.69045 15.51854 121 75.7)"/><circle r="1" fill="#111214" transform="rotate(158.4 97.1 81.4) scale(65.75504 48.55448)"/><ellipse cx="28" cy="61" fill="#141616" rx="53" ry="19"/><path fill="#ff5472" d="M83 64h2v25h-2z"/><circle r="1" fill="#323434" transform="rotate(68.1 68.5 167.1) scale(47.06873 15.82955)"/><path fill="#f14461" d="M127.2 64.7l.8-.6 22.8 29.2-.8.6z"/><path fill="#ac383e" d="M106.9 108.4l-2.3-55.1-.4 2 3.6 9.2z"/><path fill="#c43649" d="M82.2 63.2l1.6-1.2 12 14.8-1.6 1.2z"/><path fill="#ed4051" d="M156 63h3v25h-3z"/><circle r="1" fill="#353737" transform="matrix(-22.26444 -9.31342 6.46528 -15.45574 246.3 45.4)"/></g></svg>