<svg xmlns="http://www.w3.org/2000/svg" viewBox="0 0 300 168"><defs/><path fill="#6e3737" d="M0 0h300v168H0z"/><g fill-opacity=".5" transform="translate(.6 .6) scale(1.17188)"><circle cx="171" cy="106" r="202" fill="#001415"/><circle r="1" fill="#1a2221" transform="matrix(246.64387 -64.74411 9.72654 37.05345 113.4 23.6)"/><circle cx="170" cy="135" r="43" fill="#081818"/><ellipse cx="50" cy="70" fill="#ff404c" rx="3" ry="25"/><ellipse cx="90" cy="70" fill="#db3c44" rx="4" ry="25"/><path fill="#021213" d="M262.4 65.1l-5.2 37.6-41.6-5.8 5.2-37.6z"/><path fill="#be3c42" d="M126.2 85.9l13.5-41.3-21.1 63.6 45.5-68.7z"/><circle r="1" fill="#ff4750" transform="rotate(-126.3 91 1.4) scale(31.43993 1.57868)"/><circle r="1" fill="#344544" transform="matrix(4.32737 -15.98422 43.00931 11.6438 32.4 119.7)"/><circle r="1" fill="#192423" transform="rotate(166.5 48.7 71) scale(43.96775 32.01386)"/><path fill="#ff4454" d="M177 46h4v50h-4z"/><ellipse cx="107" cy="50" fill="#96363d" rx="96" ry="2"/></g></svg>