<svg xmlns="http://www.w3.org/2000/svg" viewBox="0 0 300 300"><defs/><path fill="#222d41" d="M0 0h300v300H0z"/><g fill-opacity=".5" transform="translate(.6 .6) scale(1.17188)"><circle r="1" fill="#fff" transform="matrix(-232.17872 -.41606 .06613 -36.90519 136.3 3)"/><circle cx="34" cy="245" r="68" fill="#ffcca3"/><ellipse cx="253" cy="90" fill="#fff" rx="6" ry="87"/><path d="M178 38L135-5l-10 61z"/><circle r="1" fill="#806c5c" transform="matrix(165.54922 -47.06232 5.2285 18.3921 144.1 234.6)"/><circle r="1" fill="#73868c" transform="matrix(9.86542 117.48418 -30.05472 2.52377 2.6 80.6)"/><circle r="1" fill="#130200" transform="matrix(-23.8985 39.46113 -75.06934 -45.46361 117.3 150)"/><circle r="1" fill="#edc5be" transform="matrix(-2.2852 13.22992 -43.38492 -7.49388 62.4 221.4)"/><circle r="1" fill="#c2cbc9" transform="matrix(-12.33158 28.09946 -65.22277 -28.62332 194 0)"/><circle r="1" fill="#631d00" transform="rotate(22.1 -585 114.5) scale(62.3887 9.35055)"/><path fill="#08baff" d="M10 163h52v8H10z"/><circle r="1" fill="#316a90" transform="rotate(161.2 30 44) scale(33.60136 16.2719)"/></g></svg>