<svg xmlns="http://www.w3.org/2000/svg" viewBox="0 0 300 168"><defs/><path fill="#464344" d="M0 0h300v168H0z"/><g fill-opacity=".5" transform="translate(.6 .6) scale(1.17188)"><path fill="#fff" d="M73 64h111v22H73z"/><ellipse cx="139" cy="122" fill="#060506" rx="255" ry="38"/><circle r="1" fill="#090909" transform="matrix(-252.5591 35.19805 -6.36606 -45.67887 93 20.3)"/><path fill="#fff" d="M112.9 77.4l-47-19.2 8.7-2.9 13.8 1.6z"/><path fill="#100f10" d="M180.5 75.3L220 21.1l65.6 47.6-39.4 54.2z"/><circle r="1" fill="#0e0c0e" transform="matrix(-43.94894 -3.72375 1.8054 -21.30788 25 72.9)"/><path fill="#edefee" d="M103 83l47-18-86 5z"/><path fill="#fff" d="M155 56h8v22h-8z"/><path d="M132.4 86.3l-6 .3-.8-17 6-.2z"/><path fill="#313031" d="M45.1 159L100 55.7l-6.5 22.5-105-17.7z"/><path fill="#fafafa" d="M90.7 54.6l11.6-1.2-34.5 5.1 26.7 9.7z"/><ellipse cx="143" cy="99" fill="#181717" rx="4" ry="30"/></g></svg>