<svg xmlns="http://www.w3.org/2000/svg" viewBox="0 0 300 168"><defs/><path fill="#334c36" d="M0 0h300v168H0z"/><g fill-opacity=".5" transform="translate(.6 .6) scale(1.17188)"><path fill="#fff" d="M72.7 54l117 2-.4 26-117-2z"/><ellipse cx="151" cy="118" fill="#190014" rx="255" ry="38"/><ellipse cx="126" cy="31" fill="#1d0219" rx="255" ry="29"/><path fill="#e8f1de" d="M189 78L65 45l25 35z"/><circle r="1" fill="#160b15" transform="matrix(-18.60305 39.17792 -33.91718 -16.10506 32.7 54.3)"/><path fill="#ffcddb" d="M180.2 67.1l-18.9-16.3-25 14.5 53 16.4z"/><ellipse cx="230" cy="70" fill="#1d0216" rx="47" ry="17"/><path fill="#9ac1fa" d="M95.8 80.9l-24 1.2-1.6-31 24-1.2z"/><ellipse cx="59" cy="61" fill="#000115" rx="30" ry="4"/><path fill="#1e1f1d" d="M96 58L76-16l84 74z"/><path fill="#5c0029" d="M171.7 70.9l-5.2-22.5-1.7 33.5 8-9z"/><path fill="#3b2400" d="M148.6 88.8l-6 .3-1.2-22 6-.2z"/></g></svg>