<svg xmlns="http://www.w3.org/2000/svg" viewBox="0 0 300 225"><defs/><path fill="#2a3950" d="M0 0h300v225H0z"/><g fill-opacity=".5" transform="translate(.6 .6) scale(1.17188)"><circle r="1" fill="azure" transform="rotate(-136.5 69.4 -4.3) scale(16.17834 22.60467)"/><path fill="#70ab8a" d="M121 83h62v60h-62z"/><circle r="1" fill="#030000" transform="matrix(.1821 11.59226 -254.96852 4.00537 129.4 187)"/><path fill="#fff" d="M142 4h114v5H142z"/><circle r="1" fill="#1d1c09" transform="matrix(-7.9957 65.11977 -45.09056 -5.53642 236 73.1)"/><ellipse cx="131" cy="165" fill="#7b8c7b" rx="125" ry="7"/><circle cx="9" cy="58" r="79" fill="#152119"/><path fill="#dbeae1" d="M0 138h134v5H0z"/><path fill="#559791" d="M189.4 59.8L161.2-16l-2.4 93.7 53.8-4.3z"/><circle r="1" fill="#bcb6ab" transform="matrix(55.47386 .86873 -.07111 4.541 227.5 140.3)"/><ellipse cx="129" cy="152" fill="#131501" rx="194" ry="8"/><path fill="#73ffff" d="M123 111h33v11h-33z"/></g></svg>