<?xml version="1.0" encoding="UTF-8" standalone="no"?>
<svg
   xmlns:dc="http://purl.org/dc/elements/1.1/"
   xmlns:cc="http://creativecommons.org/ns#"
   xmlns:rdf="http://www.w3.org/1999/02/22-rdf-syntax-ns#"
   xmlns:svg="http://www.w3.org/2000/svg"
   xmlns="http://www.w3.org/2000/svg"
   xmlns:sodipodi="http://sodipodi.sourceforge.net/DTD/sodipodi-0.dtd"
   xmlns:inkscape="http://www.inkscape.org/namespaces/inkscape"
   inkscape:version="1.0 (4035a4fb49, 2020-05-01)"
   sodipodi:docname="discord-dark.svg"
   xml:space="preserve"
   enable-background="new 0 0 124 34"
   viewBox="0 0 124 34"
   y="0px"
   x="0px"
   id="Layer_1"
   version="1.1"><metadata
   id="metadata888"><rdf:RDF><cc:Work
       rdf:about=""><dc:format>image/svg+xml</dc:format><dc:type
         rdf:resource="http://purl.org/dc/dcmitype/StillImage" /><dc:title></dc:title></cc:Work></rdf:RDF></metadata><defs
   id="defs886" /><sodipodi:namedview
   inkscape:current-layer="Layer_1"
   inkscape:window-maximized="1"
   inkscape:window-y="-8"
   inkscape:window-x="-8"
   inkscape:cy="17"
   inkscape:cx="62"
   inkscape:zoom="10.274194"
   inkscape:pagecheckerboard="true"
   showgrid="false"
   id="namedview884"
   inkscape:window-height="1057"
   inkscape:window-width="1858"
   inkscape:pageshadow="2"
   inkscape:pageopacity="0"
   guidetolerance="10"
   gridtolerance="10"
   objecttolerance="10"
   borderopacity="1"
   bordercolor="#666666"
   pagecolor="#ffffff" />
<g
   id="g881">
	<g
   id="g877">
		<ellipse
   style="fill:#000000"
   id="ellipse871"
   ry="1.9"
   rx="1.7"
   cy="16.1"
   cx="18"
   fill="#ffffff" />
		<ellipse
   style="fill:#000000"
   id="ellipse873"
   ry="1.9"
   rx="1.7"
   cy="16.1"
   cx="11.8"
   fill="#ffffff" />
		<path
   style="fill:#000000"
   id="path875"
   d="M 26.3,0 H 3.5 C 1.6,0 0,1.6 0,3.5 v 23 C 0,28.4 1.6,30 3.5,30 h 19.3 l -0.9,-3.1 2.2,2 2.1,1.9 3.7,3.2 V 26.5 24.8 3.5 C 29.8,1.6 28.2,0 26.3,0 Z m -6.6,22.2 c 0,0 -0.6,-0.7 -1.1,-1.4 2.2,-0.6 3.1,-2 3.1,-2 -0.7,0.5 -1.4,0.8 -2,1 -0.8,0.4 -1.7,0.6 -2.5,0.7 -1.6,0.3 -3.1,0.2 -4.4,0 C 11.8,20.3 11,20 10.3,19.8 9.9,19.7 9.5,19.5 9.1,19.2 9,19.2 9,19.1 8.9,19.1 c 0,0 -0.1,0 -0.1,0 -0.3,-0.2 -0.5,-0.3 -0.5,-0.3 0,0 0.8,1.4 3,2 -0.5,0.6 -1.1,1.4 -1.1,1.4 C 6.5,22.1 5,19.6 5,19.6 5,14.1 7.4,9.7 7.4,9.7 9.8,7.9 12.2,7.9 12.2,7.9 l 0.2,0.2 C 9.4,9 8,10.4 8,10.4 c 0,0 0.4,-0.2 1,-0.5 1.8,-0.8 3.3,-1 3.9,-1.1 0.1,0 0.2,0 0.3,0 1,-0.1 2.2,-0.2 3.4,0 1.6,0.2 3.4,0.7 5.1,1.6 0,0 -1.3,-1.3 -4.2,-2.2 l 0.2,-0.3 c 0,0 2.3,-0.1 4.8,1.8 0,0 2.4,4.4 2.4,9.9 0,0 -1.4,2.5 -5.2,2.6 z"
   fill="#ffffff" />
	</g>
	<path
   style="fill:#000000"
   id="path879"
   d="m 45.6,7.3 h -5.7 v 6.4 l 3.8,3.4 v -6.2 h 2 c 1.3,0 1.9,0.6 1.9,1.6 v 4.8 c 0,1 -0.6,1.7 -1.9,1.7 h -5.8 v 3.6 h 5.7 c 3,0 5.9,-1.5 5.9,-5 V 12.5 C 51.4,8.9 48.6,7.3 45.6,7.3 Z m 29.7,10.3 v -5.3 c 0,-1.9 3.4,-2.3 4.4,-0.4 l 3.1,-1.3 C 81.6,7.9 79.3,7.1 77.5,7.1 c -3,0 -6,1.8 -6,5.2 v 5.3 c 0,3.5 3,5.2 6,5.2 1.9,0 4.2,-0.9 5.5,-3.4 l -3.3,-1.6 c -1,2.1 -4.4,1.6 -4.4,-0.2 z M 65,13 c -1.2,-0.3 -2,-0.7 -2,-1.4 0.1,-1.8 2.8,-1.8 4.4,-0.1 L 69.9,9.6 C 68.3,7.7 66.6,7.2 64.7,7.2 c -2.8,0 -5.5,1.6 -5.5,4.6 0,2.9 2.2,4.5 4.7,4.8 1.2,0.2 2.6,0.7 2.6,1.5 -0.1,1.6 -3.5,1.6 -5,-0.3 L 59,20 c 1.4,1.8 3.3,2.8 5.2,2.8 2.8,0 5.9,-1.6 6,-4.6 C 70.4,14.5 67.7,13.5 65,13 Z m -11.5,9.6 h 3.8 V 7.3 H 53.5 Z M 118.1,7.3 h -5.7 v 6.4 l 3.8,3.4 v -6.2 h 2 c 1.3,0 1.9,0.6 1.9,1.6 v 4.8 c 0,1 -0.6,1.7 -1.9,1.7 h -5.8 v 3.6 h 5.7 c 3,0 5.9,-1.5 5.9,-5 v -5.1 c 0,-3.6 -2.9,-5.2 -5.9,-5.2 z M 90.2,7.1 c -3.2,0 -6.3,1.7 -6.3,5.2 v 5.2 c 0,3.5 3.2,5.2 6.3,5.2 3.2,0 6.3,-1.7 6.3,-5.2 v -5.2 c 0,-3.4 -3.1,-5.2 -6.3,-5.2 z m 2.5,10.5 c 0,1.1 -1.2,1.7 -2.4,1.7 -1.2,0 -2.5,-0.5 -2.5,-1.7 v -5.2 c 0,-1.1 1.2,-1.7 2.4,-1.7 1.2,0 2.5,0.5 2.5,1.7 z m 17.6,-5.2 c -0.1,-3.6 -2.5,-5 -5.6,-5 h -6.1 v 15.2 h 3.9 v -4.8 h 0.7 l 3.5,4.8 h 4.8 l -4.1,-5.2 c 1.8,-0.6 2.9,-2.2 2.9,-5 z m -5.6,2 h -2.3 v -3.5 h 2.3 c 2.4,0 2.4,3.5 0,3.5 z"
   fill="#ffffff" />
</g>
</svg>
