<?xml version="1.0" encoding="UTF-8" standalone="no"?>
<svg
   xmlns:dc="http://purl.org/dc/elements/1.1/"
   xmlns:cc="http://creativecommons.org/ns#"
   xmlns:rdf="http://www.w3.org/1999/02/22-rdf-syntax-ns#"
   xmlns:svg="http://www.w3.org/2000/svg"
   xmlns="http://www.w3.org/2000/svg"
   xmlns:sodipodi="http://sodipodi.sourceforge.net/DTD/sodipodi-0.dtd"
   xmlns:inkscape="http://www.inkscape.org/namespaces/inkscape"
   version="1.1"
   id="Layer_1"
   x="0px"
   y="0px"
   viewBox="0 0 473.654 473.654"
   style="enable-background:new 0 0 473.654 473.654;"
   xml:space="preserve"
   sodipodi:docname="fullctx-full-transparent-black.svg"
   inkscape:version="1.0 (4035a4fb49, 2020-05-01)"><metadata
   id="metadata47"><rdf:RDF><cc:Work
       rdf:about=""><dc:format>image/svg+xml</dc:format><dc:type
         rdf:resource="http://purl.org/dc/dcmitype/StillImage" /><dc:title></dc:title></cc:Work></rdf:RDF></metadata><defs
   id="defs45" /><sodipodi:namedview
   inkscape:pagecheckerboard="true"
   inkscape:document-rotation="0"
   pagecolor="#ffffff"
   bordercolor="#666666"
   borderopacity="1"
   objecttolerance="10"
   gridtolerance="10"
   guidetolerance="10"
   inkscape:pageopacity="0"
   inkscape:pageshadow="2"
   inkscape:window-width="1858"
   inkscape:window-height="1057"
   id="namedview43"
   showgrid="false"
   inkscape:zoom="0.70710678"
   inkscape:cx="131.07927"
   inkscape:cy="509.02787"
   inkscape:window-x="-8"
   inkscape:window-y="-8"
   inkscape:window-maximized="1"
   inkscape:current-layer="Layer_1" />

<g
   transform="matrix(1.5171699,0,0,1.5171699,-121.96896,-122.94094)"
   id="g10">
	<path
   style="fill:#000000"
   d="m 207.76,318.93 c -13.773,0 -27.542,0 -41.315,0 16.136,-16.133 32.273,-32.269 48.409,-48.401 10.224,-10.224 -5.699,-26.035 -15.953,-15.785 -16.11,16.11 -32.22,32.216 -48.33,48.326 0,-13.72 0,-27.441 0.004,-41.165 0,-14.487 -22.441,-14.614 -22.441,-0.161 -0.004,22.774 -0.004,45.552 -0.007,68.326 0,6.081 4.996,11.301 11.14,11.301 22.778,0 45.555,0 68.333,0 14.486,0.003 14.613,-22.441 0.16,-22.441 z"
   id="path4" />
	<path
   style="fill:#000000"
   d="m 336.326,122.041 c -22.778,0 -45.555,-0.004 -68.333,-0.007 -14.491,0 -14.618,22.441 -0.161,22.445 13.773,0 27.542,0.004 41.315,0.004 -16.136,16.133 -32.273,32.273 -48.405,48.405 -10.224,10.224 5.703,26.035 15.953,15.785 16.11,-16.114 32.22,-32.22 48.33,-48.334 0,13.724 0,27.445 -0.004,41.165 0,14.487 22.441,14.614 22.441,0.161 0.004,-22.774 0.004,-45.548 0.007,-68.322 0.001,-6.082 -4.999,-11.298 -11.143,-11.302 z"
   id="path6" />
	<path
   style="fill:#000000"
   d="m 392.592,113.672 c 0,-1.283 -0.228,-2.412 -0.546,-3.47 -4.039,-21.981 -20.814,-29.169 -41.906,-29.169 -22.516,0 -45.036,0 -67.555,0 -52.975,0 -105.95,0 -158.921,0 -22.101,0 -39.774,7.752 -42.62,32.478 -1.466,12.703 0,26.443 0,39.209 0,56.935 0,113.87 0,170.809 0,13.661 -1.006,27.721 0.561,41.319 2.696,23.384 24.401,27.74 43.544,27.74 53.584,0 107.169,0 160.749,0 21.873,0 43.742,0 65.611,0 20.182,0 41.079,-8.627 41.079,-32.542 0,-42.919 0,-85.834 0,-128.75 0,-38.308 0,-76.62 0,-114.928 0.097,-0.838 0.116,-1.728 0.004,-2.696 z m -32.467,256.471 c -12.703,1.466 -26.446,0 -39.209,0 -28.626,0 -57.253,0 -85.879,0 -28.309,0 -56.621,0 -84.929,0 -8.683,0 -44.763,6.099 -46.621,-10.026 -1.462,-12.703 0,-26.443 0,-39.209 0,-28.623 0,-57.253 0,-85.879 0,-28.309 0,-56.621 0,-84.929 0,-8.691 -6.099,-44.763 10.033,-46.621 12.703,-1.466 26.446,0 39.209,0 28.626,0 57.253,0 85.879,0 28.309,0 56.621,0 84.929,0 8.695,0 44.755,-6.103 46.614,10.033 0,41.696 0,83.392 0,125.089 0,28.309 0,56.621 0,84.929 -0.001,8.686 6.095,44.758 -10.026,46.613 z"
   id="path8" />
</g>
<g
   id="g12">
</g>
<g
   id="g14">
</g>
<g
   id="g16">
</g>
<g
   id="g18">
</g>
<g
   id="g20">
</g>
<g
   id="g22">
</g>
<g
   id="g24">
</g>
<g
   id="g26">
</g>
<g
   id="g28">
</g>
<g
   id="g30">
</g>
<g
   id="g32">
</g>
<g
   id="g34">
</g>
<g
   id="g36">
</g>
<g
   id="g38">
</g>
<g
   id="g40">
</g>
</svg>
