<?xml version="1.0" encoding="UTF-8" standalone="no"?>
<svg
   xmlns:dc="http://purl.org/dc/elements/1.1/"
   xmlns:cc="http://creativecommons.org/ns#"
   xmlns:rdf="http://www.w3.org/1999/02/22-rdf-syntax-ns#"
   xmlns:svg="http://www.w3.org/2000/svg"
   xmlns="http://www.w3.org/2000/svg"
   xmlns:sodipodi="http://sodipodi.sourceforge.net/DTD/sodipodi-0.dtd"
   xmlns:inkscape="http://www.inkscape.org/namespaces/inkscape"
   inkscape:version="1.0 (4035a4fb49, 2020-05-01)"
   sodipodi:docname="fullctx-round-transparent.svg"
   xml:space="preserve"
   style="enable-background:new 0 0 473.654 473.654;"
   viewBox="0 0 473.654 473.654"
   y="0px"
   x="0px"
   id="Layer_1"
   version="1.1"><metadata
   id="metadata47"><rdf:RDF><cc:Work
       rdf:about=""><dc:format>image/svg+xml</dc:format><dc:type
         rdf:resource="http://purl.org/dc/dcmitype/StillImage" /><dc:title></dc:title></cc:Work></rdf:RDF></metadata><defs
   id="defs45" /><sodipodi:namedview
   inkscape:current-layer="Layer_1"
   inkscape:window-maximized="1"
   inkscape:window-y="-8"
   inkscape:window-x="-8"
   inkscape:cy="314.98841"
   inkscape:cx="124.60377"
   inkscape:zoom="1"
   showgrid="false"
   id="namedview43"
   inkscape:window-height="1057"
   inkscape:window-width="1858"
   inkscape:pageshadow="2"
   inkscape:pageopacity="0"
   guidetolerance="10"
   gridtolerance="10"
   objecttolerance="10"
   borderopacity="1"
   bordercolor="#666666"
   pagecolor="#ffffff" />

<g
   id="g10">
	<path
   id="path4"
   d="M207.76,318.93c-13.773,0-27.542,0-41.315,0c16.136-16.133,32.273-32.269,48.409-48.401   c10.224-10.224-5.699-26.035-15.953-15.785c-16.11,16.11-32.22,32.216-48.33,48.326c0-13.72,0-27.441,0.004-41.165   c0-14.487-22.441-14.614-22.441-0.161c-0.004,22.774-0.004,45.552-0.007,68.326c0,6.081,4.996,11.301,11.14,11.301   c22.778,0,45.555,0,68.333,0C222.086,341.374,222.213,318.93,207.76,318.93z"
   style="fill:#FFFFFF;" />
	<path
   id="path6"
   d="M336.326,122.041c-22.778,0-45.555-0.004-68.333-0.007c-14.491,0-14.618,22.441-0.161,22.445   c13.773,0,27.542,0.004,41.315,0.004c-16.136,16.133-32.273,32.273-48.405,48.405c-10.224,10.224,5.703,26.035,15.953,15.785   c16.11-16.114,32.22-32.22,48.33-48.334c0,13.724,0,27.445-0.004,41.165c0,14.487,22.441,14.614,22.441,0.161   c0.004-22.774,0.004-45.548,0.007-68.322C347.47,127.261,342.47,122.045,336.326,122.041z"
   style="fill:#FFFFFF;" />
	<path
   id="path8"
   d="M392.592,113.672c0-1.283-0.228-2.412-0.546-3.47c-4.039-21.981-20.814-29.169-41.906-29.169   c-22.516,0-45.036,0-67.555,0c-52.975,0-105.95,0-158.921,0c-22.101,0-39.774,7.752-42.62,32.478c-1.466,12.703,0,26.443,0,39.209   c0,56.935,0,113.87,0,170.809c0,13.661-1.006,27.721,0.561,41.319c2.696,23.384,24.401,27.74,43.544,27.74   c53.584,0,107.169,0,160.749,0c21.873,0,43.742,0,65.611,0c20.182,0,41.079-8.627,41.079-32.542c0-42.919,0-85.834,0-128.75   c0-38.308,0-76.62,0-114.928C392.685,115.53,392.704,114.64,392.592,113.672z M360.125,370.143c-12.703,1.466-26.446,0-39.209,0   c-28.626,0-57.253,0-85.879,0c-28.309,0-56.621,0-84.929,0c-8.683,0-44.763,6.099-46.621-10.026c-1.462-12.703,0-26.443,0-39.209   c0-28.623,0-57.253,0-85.879c0-28.309,0-56.621,0-84.929c0-8.691-6.099-44.763,10.033-46.621c12.703-1.466,26.446,0,39.209,0   c28.626,0,57.253,0,85.879,0c28.309,0,56.621,0,84.929,0c8.695,0,44.755-6.103,46.614,10.033c0,41.696,0,83.392,0,125.089   c0,28.309,0,56.621,0,84.929C370.15,332.216,376.246,368.288,360.125,370.143z"
   style="fill:#FFFFFF;" />
</g>
<g
   id="g12">
</g>
<g
   id="g14">
</g>
<g
   id="g16">
</g>
<g
   id="g18">
</g>
<g
   id="g20">
</g>
<g
   id="g22">
</g>
<g
   id="g24">
</g>
<g
   id="g26">
</g>
<g
   id="g28">
</g>
<g
   id="g30">
</g>
<g
   id="g32">
</g>
<g
   id="g34">
</g>
<g
   id="g36">
</g>
<g
   id="g38">
</g>
<g
   id="g40">
</g>
</svg>
